<svg version="1.1" id="Layer_1" xmlns="http://www.w3.org/2000/svg" x="0" y="0" viewBox="0 0 511.999 511.999" style="enable-background:new 0 0 511.999 511.999" xml:space="preserve"><path style="fill:#36a9e1" d="m232.09 23.949-8 8 31.999 47.999 39.998-47.999-7.999-8z"/><path style="fill:#1d71b8" d="M256.089 103.947H80.095V7.95h79.998c53.016 0 95.996 42.98 95.996 95.997zM256.089 103.947h175.994V7.95h-79.998c-53.017 0-95.996 42.98-95.996 95.997z"/><path style="fill:#a5c6e3" d="M432.543 511.933H80.095l-.443-131.996 176.437 36 173.091-41.28z"/><path style="fill:#1d71b8" d="M360.085 367.938c0-39.763 32.235-71.997 71.997-71.997s71.997 32.235 71.997 71.997l-.534 143.996H393.097l-33.012-71.997v-71.999zM152.092 367.938c0-39.763-32.235-71.997-71.997-71.997S8.097 328.175 8.097 367.938l.534 143.996H119.08l33.012-71.997v-71.999z"/><path style="fill:#1d71b8" d="m432.348 361.985-176.259 61.951-174.325-56.671-1.669-175.322h351.988z"/><path style="fill:#36a9e1" d="m256.089 423.936-95.997-71.998-8 16v24h8l95.997 71.997 95.996-71.997 8-16v-16l-8-8zM256.089 175.944l-40 55.999v7.999l40 16 39.998-16v-15.999z"/><circle style="fill:#a5c6e3" cx="168.09" cy="151.941" r="87.994"/><circle style="fill:#a5c6e3" cx="344.089" cy="151.941" r="87.994"/><circle style="fill:#36a9e1" cx="344.089" cy="151.941" r="55.998"/><circle style="fill:#36a9e1" cx="168.09" cy="151.941" r="55.998"/><path style="fill:#1d1d1b" d="M168.091 215.863c-35.244 0-63.918-28.673-63.918-63.918 0-35.244 28.673-63.917 63.918-63.917 35.244 0 63.918 28.673 63.918 63.917 0 35.245-28.673 63.918-63.918 63.918zm0-111.996c-26.51 0-48.079 21.568-48.079 48.077 0 26.51 21.568 48.079 48.079 48.079s48.079-21.568 48.079-48.079c0-26.509-21.569-48.077-48.079-48.077z"/><path style="fill:#fff" d="M160.17 119.945h15.84v63.992h-15.84z"/><path style="fill:#1d1d1b" d="M344.086 215.863c-35.244 0-63.918-28.673-63.918-63.918 0-35.244 28.673-63.917 63.918-63.917s63.918 28.673 63.918 63.917c-.001 35.245-28.674 63.918-63.918 63.918zm0-111.996c-26.51 0-48.079 21.568-48.079 48.077 0 26.51 21.568 48.079 48.079 48.079 26.51 0 48.079-21.568 48.079-48.079-.001-26.509-21.568-48.077-48.079-48.077z"/><path style="fill:#fff" d="M336.17 119.945h15.84v63.992h-15.84z"/><path style="fill:#1d1d1b" d="M112.176 423.939h15.84v87.994h-15.84z"/><path transform="rotate(-90.056 80.058 483.933)" style="fill:#1d1d1b" d="M52.059 476.013h55.998v15.84H52.059z"/><path transform="rotate(-90.195 40.075 503.924)" style="fill:#1d1d1b" d="M32.074 496.006h15.998v15.84H32.074z"/><path style="fill:#1d1d1b" d="M384.861 423.939h15.84v87.994h-15.84zM425.337 455.528h15.84v55.998h-15.84z"/><path transform="rotate(-180 472.607 503.942)" style="fill:#1d1d1b" d="M464.689 495.945h15.84v15.998h-15.84z"/><path style="fill:#1d1d1b" d="M440.003 288.415V.029h-81.17c-20.944 0-40.548 5.85-57.264 15.999h-90.961C193.892 5.878 174.288.029 153.344.029H72.175V288.415C31.812 292.404.178 326.543.178 367.929L0 511.924l15.84.019.176-144.004c0-35.333 28.745-64.079 64.078-64.079 35.332 0 64.078 28.746 64.078 64.079v79.997h15.84v-47.915l96.077 73.906 96.077-73.906v47.914h15.84v-79.997c0-35.333 28.746-64.079 64.078-64.079 35.333 0 64.078 28.746 64.078 64.047l-.565 143.995 15.84.062.565-144.027c-.002-41.393-31.637-75.531-71.999-79.521zM281.244 31.869c-10.793 10.625-19.421 23.442-25.154 37.723-5.734-14.281-14.362-27.097-25.155-37.723h50.309zm10.281 200.269-35.436 15.187-35.436-15.187c15.539-10.219 27.943-24.826 35.436-42.048 7.494 17.221 19.897 31.828 35.436 42.048zM88.014 15.869h65.33c47.956 0 87.705 35.785 93.963 82.053-17.292-25.275-46.347-41.895-79.215-41.895-33.422 0-62.9 17.186-80.077 43.182v-83.34h-.001zm80.077 55.999c44.155 0 80.078 35.923 80.078 80.077 0 44.155-35.923 80.078-80.078 80.078S88.014 196.1 88.014 151.945c0-44.154 35.923-80.077 80.077-80.077zm184.075 296.071v12.1l-96.077 73.906-96.077-73.906v-12.1c0-3.361-.233-6.667-.638-9.92l96.715 75.99 96.715-75.989a80.142 80.142 0 0 0-.638 9.919zm71.997-79.524c-27.528 2.721-50.978 19.475-63.12 42.984l-104.954 82.464-104.955-82.465c-12.141-23.508-35.591-40.262-63.119-42.983V204.68c17.176 25.995 46.655 43.182 80.077 43.182a95.405 95.405 0 0 0 34.265-6.333l53.732 23.029 53.732-23.029a95.43 95.43 0 0 0 34.265 6.333c33.422 0 62.9-17.186 80.077-43.182v83.735zm-80.077-56.392c-44.155 0-80.078-35.923-80.078-80.078 0-44.153 35.923-80.077 80.078-80.077s80.077 35.923 80.077 80.077c0 44.155-35.922 80.078-80.077 80.078zM424.163 99.21c-17.176-25.995-46.655-43.182-80.077-43.182-32.868 0-61.923 16.62-79.214 41.895 6.257-46.269 46.006-82.053 93.962-82.053h65.33v83.34h-.001z"/></svg>