<svg version="1.0" xmlns="http://www.w3.org/2000/svg" width="682.667" height="682.667" viewBox="0 0 512 512"><path d="M444 3.7c-1.4.2-21.8 4.1-45.5 8.4C66.3 73.6 26.2 81.2 21.5 83.4 9.7 88.9 0 104.6 0 118.2c0 2.1 3.7 22.2 8.2 44.6l8.3 40.7L17 342l.5 138.5 2.7 5.7c3.7 8 7.1 12.2 13.1 16.1 10.9 7.2-7.7 6.7 231.2 6.7 238.9 0 220.3.5 231.2-6.7 6-3.9 9.4-8.1 13.1-16.1l2.7-5.7.3-135c.2-127.1.1-135.2-1.5-138.5-1-1.9-3.4-4.3-5.3-5.5-3.5-2-4.9-2-155.7-2.5l-152.3-.5 146.3-26.4c80.4-14.6 147.8-26.9 149.7-27.4 1.9-.5 4.8-2.3 6.6-4.1 6.1-6.1 6.1-6.5-1.7-50.5-10.5-59.4-10.8-60.9-13.9-67-6-11.8-17.5-19.2-30.4-19.7-3.9-.1-8.2 0-9.6.3zm10.9 32c1.9 1.6 3.1 7.1 9.2 41.6 3.9 22 6.9 40.1 6.6 40.3-.4.4-86.1 16.3-86.4 16-.3-.3 28.6-91.8 29.2-92.4.6-.7 33.1-6.9 36.6-7.1 1.5-.1 3.6.7 4.8 1.6zm-77.8 14c-3.1 10.5-27.5 88.1-28.1 89.2-.6 1.1-14.8 4.1-48.2 10.2-26 4.8-47.4 8.6-47.5 8.5-.2-.1 28.7-92 29.1-92.3.1-.2 21.6-4.3 47.7-9.2 26.1-4.9 47.5-8.9 47.6-9 .1-.1-.2 1.1-.6 2.6zM238.3 99.2c-15 48.3-20.1 64-21 64.7-1 .9-92.2 17.5-92.8 17-.9-.9 28.3-91.3 29.6-91.8 2.1-.7 88.1-16.9 90.5-17 2-.1 1.7 1.5-6.3 27.1zM117 96.7c0 .7-28.1 90.7-28.4 91-.4.4-43.9 8.3-44.2 8-.7-.6-13.4-74.3-13.4-77.3 0-6.8-.1-6.7 43-14.8 41.2-7.7 43-8 43-6.9zM285.4 326c22.3 15.1 40.6 27.8 40.6 28.2 0 .4-17.4 12.5-38.7 26.9-21.4 14.4-40 27.1-41.5 28.1l-2.8 1.9v-56.6c0-34.8.4-56.5.9-56.3.6.1 19.2 12.7 41.5 27.8z"/></svg>