<svg fill="#fff" version="1.1" id="Capa_1" xmlns="http://www.w3.org/2000/svg" x="0" y="0" viewBox="0 0 246 246" style="enable-background:new 0 0 246 246" xml:space="preserve"><path d="M189.024 122.5c0 36.188-29.336 65.524-65.524 65.524S57.976 158.688 57.976 122.5 87.312 56.976 123.5 56.976s65.524 29.336 65.524 65.524zM122.667 43c4.143 0 7.5-3.357 7.5-7.5v-28c0-4.143-3.357-7.5-7.5-7.5s-7.5 3.357-7.5 7.5v28c0 4.143 3.357 7.5 7.5 7.5zm61.777 25.438a7.478 7.478 0 0 0 5.304-2.197l14.849-14.85a7.498 7.498 0 0 0-.001-10.606 7.5 7.5 0 0 0-10.606.001l-14.849 14.85a7.498 7.498 0 0 0 5.303 12.802zm5.922 109.702a7.5 7.5 0 0 0-10.607 10.607l14.85 14.85c1.465 1.464 3.385 2.196 5.304 2.196s3.839-.732 5.304-2.196a7.5 7.5 0 0 0 0-10.607l-14.851-14.85zm-133.113.619-14.85 14.85a7.5 7.5 0 1 0 10.608 10.607l14.85-14.85a7.5 7.5 0 1 0-10.608-10.607zm-.619-111.9a7.476 7.476 0 0 0 5.304 2.197 7.498 7.498 0 0 0 5.304-12.802l-14.849-14.85a7.5 7.5 0 0 0-10.606-.001 7.498 7.498 0 0 0-.001 10.606l14.848 14.85zM238.5 114.5h-28c-4.143 0-7.5 3.357-7.5 7.5s3.357 7.5 7.5 7.5h28c4.143 0 7.5-3.357 7.5-7.5s-3.357-7.5-7.5-7.5zM123.667 202a7.499 7.499 0 0 0-7.5 7.5v29c0 4.143 3.357 7.5 7.5 7.5s7.5-3.357 7.5-7.5v-29c0-4.143-3.357-7.5-7.5-7.5zM44 123c0-4.143-3.357-7.5-7.5-7.5h-29c-4.143 0-7.5 3.357-7.5 7.5s3.357 7.5 7.5 7.5h29c4.143 0 7.5-3.357 7.5-7.5z"/></svg>