<svg version="1.1" id="Layer_1" xmlns="http://www.w3.org/2000/svg" x="0" y="0" viewBox="0 0 438.2 438.2" style="enable-background:new 0 0 438.2 438.2" xml:space="preserve"><circle style="fill:#f7cf52" cx="219.097" cy="219.096" r="108.313"/><path style="fill:#f7cf52" d="M211.6 348.358h15V438.2h-15zM211.6 0h15v89.842h-15z"/><path transform="rotate(-134.999 95.942 342.264)" style="fill:#f7cf52" d="M88.442 297.342h15v89.841h-15z"/><path transform="rotate(-134.999 342.266 95.933)" style="fill:#f7cf52" d="M334.765 51.011h15v89.841h-15z"/><path style="fill:#f7cf52" d="M0 211.6h89.842v15H0zM348.358 211.6H438.2v15h-89.842z"/><path transform="rotate(-134.999 95.937 95.936)" style="fill:#f7cf52" d="M51.017 88.436h89.841v15H51.017z"/><path transform="rotate(-134.999 342.264 342.26)" style="fill:#f7cf52" d="M297.342 334.758h89.841v15h-89.841z"/><path transform="rotate(-112.495 275.314 354.8)" style="fill:#f4581b" d="M257.727 347.297h35.174v15h-35.174z"/><path transform="rotate(-112.495 162.893 83.4)" style="fill:#f4581b" d="M145.305 75.898h35.174v15h-35.174z"/><path transform="rotate(-157.503 162.89 354.798)" style="fill:#f4581b" d="M155.389 337.208h15v35.174h-15z"/><path transform="rotate(-157.503 275.307 83.398)" style="fill:#f4581b" d="M267.805 65.81h15v35.174h-15z"/><path transform="rotate(-112.495 83.4 275.304)" style="fill:#f4581b" d="M75.901 257.716h15v35.174h-15z"/><path transform="rotate(-112.495 354.797 162.89)" style="fill:#f4581b" d="M347.296 145.3h15v35.174h-15z"/><path transform="rotate(-157.503 83.4 162.89)" style="fill:#f4581b" d="M65.814 155.39h35.174v15H65.814z"/><path transform="rotate(-157.503 354.8 275.304)" style="fill:#f4581b" d="M337.211 267.802h35.174v15h-35.174z"/></svg>