<?xml version="1.0" encoding="iso-8859-1"?>
<!-- Generator: Adobe Illustrator 19.0.0, SVG Export Plug-In . SVG Version: 6.00 Build 0)  -->
<svg version="1.1" id="Layer_1" xmlns="http://www.w3.org/2000/svg" xmlns:xlink="http://www.w3.org/1999/xlink" x="0px" y="0px"
	 viewBox="0 0 511.999 511.999" style="enable-background:new 0 0 511.999 511.999;" xml:space="preserve">
<polygon style="fill:#36A9E1;" points="232.09,23.949 224.09,31.949 256.089,79.948 296.087,31.949 288.088,23.949 "/>
<g>
	<path style="fill:#1D71B8;" d="M256.089,103.947H80.095V7.95h79.998C213.109,7.95,256.089,50.93,256.089,103.947L256.089,103.947z"
		/>
	<path style="fill:#1D71B8;" d="M256.089,103.947h175.994V7.95h-79.998C299.068,7.95,256.089,50.93,256.089,103.947L256.089,103.947
		z"/>
</g>
<polygon style="fill:#A5C6E3;" points="432.543,511.933 80.095,511.933 79.652,379.937 256.089,415.937 429.18,374.657 "/>
<g>
	<path style="fill:#1D71B8;" d="M360.085,367.938c0-39.763,32.235-71.997,71.997-71.997s71.997,32.235,71.997,71.997l-0.534,143.996
		H393.097l-33.012-71.997L360.085,367.938L360.085,367.938z"/>
	<path style="fill:#1D71B8;" d="M152.092,367.938c0-39.763-32.235-71.997-71.997-71.997S8.097,328.175,8.097,367.938l0.534,143.996
		H119.08l33.012-71.997V367.938z"/>
	<polygon style="fill:#1D71B8;" points="432.348,361.985 256.089,423.936 81.764,367.265 80.095,191.943 432.083,191.943 	"/>
</g>
<g>
	<polygon style="fill:#36A9E1;" points="256.089,423.936 160.092,351.938 152.092,367.938 152.092,391.938 160.092,391.938 
		256.089,463.935 352.085,391.938 360.085,375.938 360.085,359.938 352.085,351.938 	"/>
	<polygon style="fill:#36A9E1;" points="256.089,175.944 216.089,231.943 216.089,239.942 256.089,255.942 296.087,239.942 
		296.087,223.943 	"/>
</g>
<g>
	<circle style="fill:#A5C6E3;" cx="168.09" cy="151.941" r="87.994"/>
	<circle style="fill:#A5C6E3;" cx="344.089" cy="151.941" r="87.994"/>
</g>
<g>
	<circle style="fill:#36A9E1;" cx="344.089" cy="151.941" r="55.998"/>
	<circle style="fill:#36A9E1;" cx="168.09" cy="151.941" r="55.998"/>
</g>
<path style="fill:#1D1D1B;" d="M168.091,215.863c-35.244,0-63.918-28.673-63.918-63.918c0-35.244,28.673-63.917,63.918-63.917
	c35.244,0,63.918,28.673,63.918,63.917C232.009,187.19,203.336,215.863,168.091,215.863z M168.091,103.867
	c-26.51,0-48.079,21.568-48.079,48.077c0,26.51,21.568,48.079,48.079,48.079s48.079-21.568,48.079-48.079
	C216.17,125.435,194.601,103.867,168.091,103.867z"/>
<rect x="160.17" y="119.945" style="fill:#FFFFFF;" width="15.84" height="63.992"/>
<path style="fill:#1D1D1B;" d="M344.086,215.863c-35.244,0-63.918-28.673-63.918-63.918c0-35.244,28.673-63.917,63.918-63.917
	s63.918,28.673,63.918,63.917C408.003,187.19,379.33,215.863,344.086,215.863z M344.086,103.867
	c-26.51,0-48.079,21.568-48.079,48.077c0,26.51,21.568,48.079,48.079,48.079c26.51,0,48.079-21.568,48.079-48.079
	C392.164,125.435,370.597,103.867,344.086,103.867z"/>
<rect x="336.17" y="119.945" style="fill:#FFFFFF;" width="15.84" height="63.992"/>
<g>
	<rect x="112.176" y="423.939" style="fill:#1D1D1B;" width="15.84" height="87.994"/>
	
		<rect x="52.059" y="476.013" transform="matrix(-9.799995e-004 -1 1 -9.799995e-004 -403.7966 564.4656)" style="fill:#1D1D1B;" width="55.998" height="15.84"/>
	
		<rect x="32.074" y="496.006" transform="matrix(-0.0034 -1 1 -0.0034 -463.7131 545.7117)" style="fill:#1D1D1B;" width="15.998" height="15.84"/>
	<rect x="384.861" y="423.939" style="fill:#1D1D1B;" width="15.84" height="87.994"/>
	<rect x="425.337" y="455.528" style="fill:#1D1D1B;" width="15.84" height="55.998"/>
	
		<rect x="464.689" y="495.945" transform="matrix(-1 -0.0034 0.0034 -1 943.5007 1009.4911)" style="fill:#1D1D1B;" width="15.84" height="15.998"/>
	<path style="fill:#1D1D1B;" d="M440.003,288.415v-136.47V0.029h-81.17c-20.944,0-40.548,5.85-57.264,15.999h-90.961
		c-16.716-10.15-36.32-15.999-57.264-15.999H72.175v151.915v136.471c-40.363,3.989-71.997,38.128-71.997,79.514L0,511.924
		l15.84,0.019l0.176-144.004c0-35.333,28.745-64.079,64.078-64.079c35.332,0,64.078,28.746,64.078,64.079v79.997h15.84v-47.915
		l96.077,73.906l96.077-73.906v47.914h15.84v-79.997c0-35.333,28.746-64.079,64.078-64.079c35.333,0,64.078,28.746,64.078,64.047
		l-0.565,143.995l15.84,0.062l0.565-144.027C512,326.543,480.365,292.405,440.003,288.415z M281.244,31.869
		c-10.793,10.625-19.421,23.442-25.154,37.723c-5.734-14.281-14.362-27.097-25.155-37.723
		C230.934,31.869,281.244,31.869,281.244,31.869z M291.525,232.138l-35.436,15.187l-35.436-15.187
		c15.539-10.219,27.943-24.826,35.436-42.048C263.583,207.311,275.986,221.918,291.525,232.138z M88.014,15.869h65.33
		c47.956,0,87.705,35.785,93.963,82.053c-17.292-25.275-46.347-41.895-79.215-41.895c-33.422,0-62.9,17.186-80.077,43.182V15.869
		H88.014z M168.091,71.868c44.155,0,80.078,35.923,80.078,80.077c0,44.155-35.923,80.078-80.078,80.078S88.014,196.1,88.014,151.945
		C88.014,107.791,123.937,71.868,168.091,71.868z M352.166,367.939v12.1l-96.077,73.906l-96.077-73.906v-12.1
		c0-3.361-0.233-6.667-0.638-9.92l96.715,75.99l96.715-75.989C352.399,361.271,352.166,364.577,352.166,367.939z M424.163,288.415
		c-27.528,2.721-50.978,19.475-63.12,42.984l-104.954,82.464l-104.955-82.465c-12.141-23.508-35.591-40.262-63.119-42.983v-83.735
		c17.176,25.995,46.655,43.182,80.077,43.182c12.068,0,23.619-2.246,34.265-6.333l53.732,23.029l53.732-23.029
		c10.646,4.086,22.198,6.333,34.265,6.333c33.422,0,62.9-17.186,80.077-43.182L424.163,288.415L424.163,288.415z M344.086,232.023
		c-44.155,0-80.078-35.923-80.078-80.078c0-44.153,35.923-80.077,80.078-80.077s80.077,35.923,80.077,80.077
		C424.163,196.1,388.241,232.023,344.086,232.023z M424.163,99.21c-17.176-25.995-46.655-43.182-80.077-43.182
		c-32.868,0-61.923,16.62-79.214,41.895c6.257-46.269,46.006-82.053,93.962-82.053h65.33V99.21H424.163z"/>
</g>
<g>
</g>
<g>
</g>
<g>
</g>
<g>
</g>
<g>
</g>
<g>
</g>
<g>
</g>
<g>
</g>
<g>
</g>
<g>
</g>
<g>
</g>
<g>
</g>
<g>
</g>
<g>
</g>
<g>
</g>
</svg>
