<?xml version="1.0" standalone="no"?>
<!DOCTYPE svg PUBLIC "-//W3C//DTD SVG 20010904//EN"
 "http://www.w3.org/TR/2001/REC-SVG-20010904/DTD/svg10.dtd">
<svg version="1.0" xmlns="http://www.w3.org/2000/svg"
 width="512.000000pt" height="512.000000pt" viewBox="0 0 512.000000 512.000000"
 preserveAspectRatio="xMidYMid meet">
<metadata>
Created by potrace 1.14, written by Peter Selinger 2001-2017
</metadata>
<g transform="translate(0.000000,512.000000) scale(0.100000,-0.100000)"
fill="#000000" stroke="none">
<path d="M4440 5083 c-14 -2 -218 -41 -455 -84 -3322 -615 -3723 -691 -3770
-713 -118 -55 -215 -212 -215 -348 0 -21 37 -222 82 -446 l83 -407 5 -1385 5
-1385 27 -57 c37 -80 71 -122 131 -161 109 -72 -77 -67 2312 -67 2389 0 2203
-5 2312 67 60 39 94 81 131 161 l27 57 3 1350 c2 1271 1 1352 -15 1385 -10 19
-34 43 -53 55 -35 20 -49 20 -1557 25 l-1523 5 1463 264 c804 146 1478 269
1497 274 19 5 48 23 66 41 61 61 61 65 -17 505 -105 594 -108 609 -139 670
-60 118 -175 192 -304 197 -39 1 -82 0 -96 -3z m109 -320 c19 -16 31 -71 92
-416 39 -220 69 -401 66 -403 -4 -4 -861 -163 -864 -160 -3 3 286 918 292 924
6 7 331 69 366 71 15 1 36 -7 48 -16z m-778 -140 c-31 -105 -275 -881 -281
-892 -6 -11 -148 -41 -482 -102 -260 -48 -474 -86 -475 -85 -2 1 287 920 291
923 1 2 216 43 477 92 261 49 475 89 476 90 1 1 -2 -11 -6 -26z m-1388 -495
c-150 -483 -201 -640 -210 -647 -10 -9 -922 -175 -928 -170 -9 9 283 913 296
918 21 7 881 169 905 170 20 1 17 -15 -63 -271z m-1213 25 c0 -7 -281 -907
-284 -910 -4 -4 -439 -83 -442 -80 -7 6 -134 743 -134 773 0 68 -1 67 430 148
412 77 430 80 430 69z m1684 -2293 c223 -151 406 -278 406 -282 0 -4 -174
-125 -387 -269 -214 -144 -400 -271 -415 -281 l-28 -19 0 566 c0 348 4 565 9
563 6 -1 192 -127 415 -278z"/>
</g>
</svg>
